<svg width="40" height="40" viewBox="0 0 40 40" fill="none" xmlns="http://www.w3.org/2000/svg">
<g clip-path="url(#clip0_481_555)">
<path d="M20 40C31.0457 40 40 31.0457 40 20C40 8.9543 31.0457 0 20 0C8.9543 0 0 8.9543 0 20C0 31.0457 8.9543 40 20 40Z" fill="#121029"/>
<path d="M25 10.1313C24.7403 10.1313 23.5714 10 22.4026 10C19.8052 10 17.987 11.5758 17.987 14.596V17.091H15V20.5052H17.987V29.4347H21.4935V20.5052H24.4805L24.8701 17.091H21.4935V14.8587C21.4935 13.8081 21.7532 13.1516 23.1818 13.1516H25V10.1313Z" fill="white"/>
</g>
<defs>
<clipPath id="clip0_481_555">
<rect width="40" height="40" fill="white"/>
</clipPath>
</defs>
</svg>
