<svg width="32" height="32" viewBox="0 0 32 32" fill="none" xmlns="http://www.w3.org/2000/svg">
<path d="M17.1924 7.26172C18.8144 6.09556 20.8428 5.63923 22.8203 6.04492H22.8193C24.5251 6.36058 26.0672 7.26304 27.1777 8.5957C28.2883 9.92848 28.8976 11.6079 28.9004 13.3428V13.4932C28.9004 15.4883 28.0987 17.3946 26.7051 18.835L26.418 19.1162L17.6758 27.208L17.584 27.3486L17.5762 27.3604L17.5664 27.3691C17.152 27.7313 16.5784 27.9932 16 27.9932C15.37 27.9931 14.8497 27.7301 14.3896 27.373L14.376 27.3623L14.3672 27.3486L14.2754 27.2109L5.53223 19.1162C4.76202 18.3964 4.1479 17.5252 3.72949 16.5576C3.3112 15.5901 3.09747 14.5463 3.10059 13.4922V13.3428C3.10081 9.79579 5.63348 6.70397 9.13086 6.04492L9.50195 5.97949C11.3605 5.69957 13.2406 6.16856 14.8076 7.26074H14.8066C15.2373 7.54826 15.6221 7.92439 15.9971 8.29883C16.0721 8.22008 16.15 8.13818 16.2334 8.0498C16.3407 7.93613 16.4573 7.81915 16.5879 7.71484L16.5908 7.71289L17.1904 7.26367L17.1924 7.26172ZM14.125 10.1094C12.9993 8.83745 11.2853 8.29742 9.61719 8.5918L9.61621 8.59082C8.51278 8.80273 7.51764 9.39385 6.80273 10.2607C6.08741 11.1282 5.69754 12.2184 5.7002 13.3428V13.4932C5.7002 14.8281 6.17495 16.0744 7.08008 16.9902L7.26758 17.1689L7.26855 17.1699L15.999 25.2559L24.6826 17.1699L24.6836 17.1689C25.1958 16.704 25.6043 16.1361 25.8828 15.5029C26.1613 14.8697 26.3032 14.1849 26.2998 13.4932V13.3428C26.2996 11.042 24.6348 9.03248 22.3311 8.5918V8.59082C20.6635 8.29627 18.9506 8.83789 17.8252 10.1094L17.8242 10.1104L16.9473 11.083C16.9455 11.0996 16.9428 11.1189 16.9336 11.1377C16.9246 11.1558 16.9127 11.1702 16.9033 11.1807C16.8942 11.1908 16.8827 11.2023 16.8711 11.2139C16.656 11.429 16.3313 11.5938 16 11.5938C15.6207 11.5937 15.2959 11.4307 15.0791 11.2139L15.0498 11.1846V11.166C15.0458 11.163 15.04 11.162 15.0361 11.1582C15.0222 11.1442 15.0137 11.1287 15.0088 11.1152L15.002 11.083L14.126 10.1104L14.125 10.1094Z" fill="black" stroke="black" stroke-width="0.2"/>
</svg>
