<svg width="64" height="64" viewBox="0 0 64 64" fill="none" xmlns="http://www.w3.org/2000/svg">
<g clip-path="url(#clip0_481_618)">
<path d="M0.43457 0.428223V63.5735H63.5802L63.5798 0.428223H0.43457Z" fill="white"/>
<path fill-rule="evenodd" clip-rule="evenodd" d="M0.43457 63.5735V0.428223H63.5794L63.5798 63.5735H0.43457ZM58.0954 32.7315C58.6483 31.0938 59.2744 28.6426 59.3775 26.6753C59.4561 25.1912 59.2563 23.1127 57.8564 21.6357C56.7396 20.4556 55.0333 19.86 52.7848 19.86C49.9443 19.86 47.6555 20.8627 45.9809 22.8456L45.5389 23.3669L45.2452 22.7504C45.0056 22.248 44.8342 22.0421 44.5732 21.7477C43.4287 20.4528 41.5094 19.7964 38.8687 19.7968C36.4495 19.7968 34.2643 20.5217 32.7147 21.8384L32.3226 22.1715L32.0523 21.7317C31.3206 20.5424 29.4966 19.7726 27.407 19.7726C24.4004 19.7733 21.3668 20.1815 19.5368 23.1315L18.7784 24.3489L18.719 22.915C18.6728 21.8056 18.5715 21.3448 18.0555 20.7987C17.4881 20.1968 16.5331 19.9041 15.1364 19.9052C13.0856 19.9052 11.5443 20.7994 10.4232 22.6408C8.69768 25.3971 4.52701 34.4631 4.6191 38.772C4.67955 41.5685 6.5455 43.2801 9.61217 43.3509C12.1395 43.412 14.1483 42.7635 15.4244 41.4757L15.7501 41.1464L16.063 41.4849C17.21 42.7301 18.9537 43.4163 20.9736 43.4163C23.5457 43.4163 25.7451 42.617 27.0084 41.2222L27.3533 40.8421L27.6776 41.2407C28.8602 42.6935 30.6877 43.4551 32.9622 43.4458C35.9286 43.4327 38.6991 42.0695 40.5626 39.7082L41.0511 39.0892L41.3238 39.8298C42.4723 42.9527 45.5848 43.4181 47.3402 43.4192C53.3011 43.4192 55.8753 39.3292 58.0954 32.7315Z" fill="#FFED00"/>
<path fill-rule="evenodd" clip-rule="evenodd" d="M0.43457 63.5735V0.428223H63.5794L63.5798 63.5735H0.43457ZM58.4907 37.3541C59.316 35.6531 60.8687 31.396 61.1556 29.0974L61.1588 29.0721C61.5087 26.2661 61.8397 23.6108 59.9464 20.9722C58.6003 19.097 56.3066 17.8387 52.8168 17.8384C50.1789 17.8384 47.823 18.553 45.9393 20.1196C44.3261 18.5232 42.0125 17.7985 38.8986 17.7992C36.4619 17.7992 34.4168 18.3564 32.6358 19.4256C31.343 18.3984 29.8255 17.7566 27.4077 17.7566C25.2161 17.7562 22.1391 17.8704 19.8177 19.8412C19.2811 18.7464 18.1903 17.8867 15.1812 17.8867C12.4093 17.8867 10.148 19.198 8.66497 21.6325C6.68488 24.7952 2.48186 33.9283 2.58924 38.9175C2.66924 42.6732 5.48559 45.2606 9.56524 45.3576C12.0168 45.4149 14.1046 44.8901 15.6979 43.8327C17.1386 44.8709 18.9796 45.4316 21.0255 45.4316C23.4739 45.432 25.6826 44.7891 27.3203 43.635C28.804 44.8112 30.7507 45.4469 32.953 45.4469C35.8102 45.448 38.4651 44.4613 40.6099 42.5843C42.0726 44.4496 44.5786 45.4192 47.6218 45.4195C53.3188 45.4199 56.2781 41.9159 58.4907 37.3541Z" fill="#E3000B"/>
<path fill-rule="evenodd" clip-rule="evenodd" d="M0 64V0H64L63.9989 63.9989L0 64ZM63.1182 63.1186L63.1189 0.881067H0.880356L0.881778 63.1182L63.1182 63.1186Z" fill="black"/>
<path fill-rule="evenodd" clip-rule="evenodd" d="M59.5967 19.307C59.5964 19.1056 59.6357 18.9061 59.7126 18.72C59.7894 18.5339 59.9022 18.3647 60.0445 18.2223C60.1869 18.0798 60.3559 17.9668 60.542 17.8898C60.728 17.8128 60.9274 17.7733 61.1288 17.7734C61.3303 17.7731 61.53 17.8125 61.7162 17.8894C61.9025 17.9663 62.0717 18.0793 62.2143 18.2217C62.3568 18.3642 62.4698 18.5334 62.5468 18.7196C62.6238 18.9058 62.6633 19.1054 62.663 19.307C62.6634 19.5085 62.624 19.7081 62.547 19.8944C62.47 20.0806 62.357 20.2498 62.2144 20.3923C62.0719 20.5347 61.9026 20.6476 61.7163 20.7245C61.53 20.8013 61.3303 20.8406 61.1288 20.8401C60.9274 20.8404 60.728 20.801 60.5419 20.7241C60.3558 20.6471 60.1867 20.5342 60.0444 20.3917C59.902 20.2493 59.7892 20.0801 59.7124 19.894C59.6356 19.7078 59.5963 19.5083 59.5967 19.307ZM61.1295 18.0778C61.8115 18.0782 62.3658 18.6271 62.364 19.3091C62.3658 19.991 61.8093 20.5418 61.1295 20.5418C60.9679 20.5416 60.808 20.5095 60.6588 20.4474C60.5096 20.3853 60.3742 20.2944 60.2601 20.1799C60.1461 20.0654 60.0558 19.9296 59.9943 19.7802C59.9328 19.6307 59.9014 19.4707 59.9018 19.3091C59.9011 19.1475 59.9323 18.9874 59.9937 18.8379C60.0552 18.6884 60.1455 18.5526 60.2596 18.4381C60.3737 18.3237 60.5093 18.2329 60.6586 18.1711C60.8079 18.1093 60.9679 18.0776 61.1295 18.0778ZM61.7265 19.788L61.9096 20.108L61.5125 20.1105L61.3855 19.851C61.329 19.7373 61.256 19.6326 61.169 19.5402C61.1064 19.4751 61.0492 19.4588 60.908 19.4588L60.8497 19.4591L60.849 20.1098H60.5215V18.5215H61.3126C61.6536 18.5215 61.8136 18.7118 61.8136 18.9635C61.8143 19.2035 61.6522 19.3759 61.3841 19.4079L61.3848 19.4168C61.521 19.4641 61.5661 19.5086 61.7265 19.788ZM60.8486 18.7683V19.2046H61.1804C61.4022 19.2046 61.4755 19.0965 61.4723 18.9841C61.4723 18.844 61.361 18.7672 61.1448 18.7672L60.8486 18.7683ZM45.6415 22.5599C47.1875 20.7288 49.4751 19.4172 52.7832 19.4172C58.5094 19.4172 60.0074 23.1612 59.8197 26.699C59.7084 28.8252 59.0261 31.3582 58.5162 32.8732C56.2513 39.6042 53.5313 43.8606 47.3411 43.8598C44.5162 43.8606 41.931 42.7583 40.9123 39.9814C39.0517 42.3359 36.2079 43.8726 32.9656 43.8886C30.4874 43.9007 28.5603 43.025 27.3354 41.5206C25.8812 43.1256 23.4204 43.8605 20.9745 43.8613C18.7772 43.8598 16.9425 43.0943 15.7382 41.7866C14.3964 43.1398 12.2879 43.8581 9.60241 43.7951C6.16241 43.7126 4.24063 41.6486 4.17734 38.7836C4.08277 34.3484 8.30677 25.1921 10.0479 22.412C11.2497 20.4398 12.919 19.4716 15.1359 19.4705C16.353 19.4716 17.6028 19.6831 18.3754 20.5016C19.0108 21.1736 19.1128 21.771 19.1597 22.9016C21.1082 19.7621 24.3921 19.3354 27.4051 19.3361C29.7105 19.3361 31.6241 20.199 32.4269 21.5036C33.9722 20.1902 36.1976 19.3567 38.8671 19.3567C41.5996 19.3571 43.6351 20.0238 44.9023 21.4574C45.1818 21.772 45.3805 22.0124 45.6415 22.5599ZM15.4989 38.0142C15.6006 36.9418 14.7974 35.7838 11.5928 36.3398C11.911 35.627 12.3843 34.6499 12.9215 33.5406C14.6431 29.9857 17.0221 25.0734 17.0669 23.1516C17.0911 22.204 16.7093 21.414 15.1725 21.4147C13.5491 21.414 12.5308 22.0931 11.6966 23.4634C9.88757 26.3523 6.04579 35.067 6.1265 38.8337C6.17201 40.9869 7.84134 41.8367 9.69628 41.8801C12.2527 41.9395 15.1974 41.2216 15.4993 38.0138L15.4989 38.0142ZM22.0234 33.3813C21.8101 33.9551 21.409 35.1569 21.0851 36.4287C22.1368 36.1663 22.9244 35.9846 24.2744 36.0159C25.8136 36.0536 26.7985 36.6908 26.7978 37.9644C26.7978 41.0485 23.3869 41.9544 21.0236 41.9551C18.4259 41.9551 16.1439 40.4778 16.1439 37.6373C16.1439 34.3071 17.9487 29.2575 19.6426 25.8958C21.7219 21.7656 23.8477 21.217 27.5075 21.217C29.1167 21.217 30.9692 21.9039 30.9692 23.4229C30.9692 25.5285 29.1885 26.3313 27.4197 26.433C26.6634 26.4764 25.5018 26.518 24.807 26.4682C24.807 26.4682 24.2165 27.366 23.5925 28.9624C26.8664 28.5016 28.2559 29.2451 27.7034 31.1384C26.9553 33.6981 24.7373 33.867 22.023 33.3809L22.0234 33.3813ZM36.2328 26.5852C36.6648 25.9797 37.2426 25.419 38.129 25.419C39.2152 25.419 39.11 25.9935 38.8522 26.7277C38.1201 28.8184 40.3309 28.8735 40.8707 28.8309C42.8006 28.6805 43.8641 27.4335 44.1258 25.3094C44.4842 22.4174 42.0476 21.307 38.9589 21.307C33.8104 21.307 31.7894 24.4558 29.8616 28.9571C28.956 31.0716 27.8154 34.6851 27.8157 36.9862C27.8154 40.2182 29.782 41.9708 32.9514 41.9708C37.5797 41.9708 40.8501 38.2801 41.7845 33.6817C42.0721 32.2666 42.4266 29.611 38.8319 29.7589C37.0072 29.8342 35.9064 30.2367 35.3261 32.1013C34.7288 34.022 36.8952 34.0742 36.8952 34.0742C36.4593 36.06 35.1832 37.2639 34.0461 37.265C33.3365 37.265 32.6908 36.9571 32.9069 35.4552C33.228 33.2593 35.2845 27.9182 36.2328 26.5852ZM57.5722 29.2188C57.0261 31.9281 55.8029 35.1352 54.4739 37.5249C52.305 41.4232 49.6742 41.9694 47.3741 41.9402C45.0755 41.9128 42.4838 41.0652 42.4643 37.5174C42.4504 34.9717 43.548 31.3763 44.4806 29.0222C46.1073 24.7519 47.7663 21.2693 53.0175 21.3315C59.1395 21.403 58.0476 26.8483 57.5722 29.2188ZM49.8929 36.1653C50.7441 34.7235 53.1402 28.1838 53.2056 26.5486C53.2248 26.0721 53.1462 25.5174 52.3782 25.5085C51.8517 25.5011 51.3937 25.6031 50.982 26.2392C50.0568 27.4417 47.3485 34.8383 47.3944 36.3139C47.4111 36.8444 47.7073 37.3077 48.3587 37.3077C49.1089 37.3084 49.5245 36.7921 49.8929 36.1653Z" fill="black"/>
</g>
<defs>
<clipPath id="clip0_481_618">
<rect width="64" height="64" fill="white"/>
</clipPath>
</defs>
</svg>
