<svg width="32" height="32" viewBox="0 0 32 32" fill="none" xmlns="http://www.w3.org/2000/svg">
<path d="M24.0061 13.5816C24.0061 15.8816 23.2557 18.0312 22.0061 19.7312L28.3061 26.0816C28.9557 26.6816 28.9557 27.7312 28.3061 28.3312C28.1619 28.4852 27.9876 28.6079 27.7941 28.6919C27.6005 28.7758 27.3918 28.8191 27.1809 28.8191C26.9699 28.8191 26.7612 28.7758 26.5677 28.6919C26.3741 28.6079 26.1998 28.4852 26.0557 28.3312L19.7061 21.9816C18.0061 23.2816 15.8557 23.9816 13.6061 23.9816C7.85565 23.9816 3.20605 19.3312 3.20605 13.5816C3.20605 7.88164 7.85565 3.18164 13.6061 3.18164C19.3061 3.18164 24.0061 7.88164 24.0061 13.5816ZM13.6061 20.7816C16.1557 20.7816 18.5061 19.4312 19.8061 17.1816C21.1061 14.9816 21.1061 12.2312 19.8061 9.98164C18.5061 7.78164 16.1557 6.38164 13.6061 6.38164C11.0061 6.38164 8.65565 7.78164 7.35565 9.98164C6.05565 12.2312 6.05565 14.9816 7.35565 17.1816C8.65565 19.4312 11.0061 20.7816 13.6061 20.7816Z" fill="black"/>
</svg>
