<svg width="32" height="32" viewBox="0 0 32 32" fill="none" xmlns="http://www.w3.org/2000/svg">
<path d="M12.7998 8.80019V11.2002H19.1998V8.80019C19.1998 7.0498 17.7494 5.6002 15.9998 5.6002C14.1998 5.6002 12.7998 7.0506 12.7998 8.80019ZM10.3998 13.6002H7.1998V24.0002C7.1998 25.3506 8.2502 26.4002 9.59981 26.4002H22.3998C23.0363 26.4002 23.6468 26.1473 24.0969 25.6972C24.547 25.2472 24.7998 24.6367 24.7998 24.0002V13.6002H21.5998V16.4002C21.5998 17.1002 21.0494 17.6002 20.3998 17.6002C19.6998 17.6002 19.1998 17.1002 19.1998 16.4002V13.6002H12.7998V16.4002C12.7998 17.1002 12.2494 17.6002 11.5998 17.6002C10.8998 17.6002 10.3998 17.1002 10.3998 16.4002V13.6002ZM10.3998 11.2002V8.80019C10.3998 5.7498 12.8998 3.2002 15.9998 3.2002C19.0502 3.2002 21.5998 5.7506 21.5998 8.80019V11.2002H24.7998C26.0998 11.2002 27.1998 12.3002 27.1998 13.6002V24.0002C27.1998 26.6506 25.0494 28.8002 22.3998 28.8002H9.59981C6.9494 28.8002 4.7998 26.6498 4.7998 24.0002V13.6002C4.7998 12.9637 5.05266 12.3532 5.50275 11.9031C5.95284 11.4531 6.56329 11.2002 7.1998 11.2002H10.3998Z" fill="black"/>
</svg>
