<svg width="32" height="32" viewBox="0 0 32 32" fill="none" xmlns="http://www.w3.org/2000/svg">
<path d="M9.0528 2.0662C9.0528 1.367 9.6184 0.799805 10.316 0.799805H21.684C22.3816 0.799805 22.948 1.367 22.948 2.0662V5.8662C25.7376 5.8662 28 8.135 28 10.9334V22.3334C28.0008 23.4554 27.6291 24.5459 26.9432 25.4339C26.2574 26.3219 25.2962 26.957 24.2104 27.2398V31.1998H7.7896V27.2398C6.70395 26.9571 5.74284 26.322 5.057 25.4342C4.37117 24.5464 3.9994 23.4561 4 22.3342V10.9342C4 8.13581 6.2624 5.867 9.0528 5.867V2.067V2.0662Z" fill="#FFD502"/>
<path d="M14.1057 15.9998C14.106 16.166 14.0735 16.3306 14.0102 16.4842C13.9468 16.6379 13.8537 16.7775 13.7363 16.8951C13.6189 17.0128 13.4795 17.1061 13.3259 17.1698C13.1724 17.2334 13.0079 17.2662 12.8417 17.2662C12.5065 17.2654 12.1854 17.1315 11.9488 16.8941C11.7123 16.6566 11.5797 16.335 11.5801 15.9998C11.5801 15.2998 12.1457 14.7334 12.8433 14.7334C13.5409 14.7334 14.1057 15.2998 14.1057 15.9998ZM20.4209 15.9998C20.4212 16.1659 20.3888 16.3305 20.3254 16.4841C20.2621 16.6376 20.1691 16.7772 20.0518 16.8949C19.9345 17.0125 19.7951 17.1058 19.6417 17.1695C19.4883 17.2332 19.3238 17.2661 19.1577 17.2662C18.9916 17.266 18.8272 17.2331 18.6738 17.1693C18.5204 17.1056 18.3811 17.0122 18.2638 16.8946C18.1465 16.777 18.0535 16.6375 17.9901 16.4839C17.9268 16.3304 17.8943 16.1659 17.8945 15.9998C17.8942 15.8336 17.9266 15.669 17.99 15.5154C18.0534 15.3617 18.1464 15.2221 18.2638 15.1045C18.3813 14.9868 18.5207 14.8935 18.6742 14.8298C18.8277 14.7662 18.9923 14.7334 19.1585 14.7334C19.3245 14.7336 19.4889 14.7665 19.6423 14.8303C19.7956 14.8941 19.9348 14.9874 20.0521 15.105C20.1693 15.2226 20.2622 15.3622 20.3255 15.5157C20.3888 15.6692 20.4212 15.8337 20.4209 15.9998ZM12.3169 20.715C12.3627 20.6458 12.4218 20.5863 12.4907 20.54C12.5596 20.4936 12.6369 20.4614 12.7183 20.445C12.7997 20.4286 12.8835 20.4285 12.965 20.4447C13.0464 20.4608 13.1239 20.4929 13.1929 20.539C14.0258 21.0891 15.0019 21.3824 16.0001 21.3824C16.9982 21.3824 17.9744 21.0891 18.8073 20.539C18.8763 20.4929 18.9537 20.4608 19.0352 20.4447C19.1166 20.4285 19.2004 20.4286 19.2818 20.445C19.3632 20.4614 19.4406 20.4936 19.5095 20.54C19.5784 20.5863 19.6374 20.6458 19.6833 20.715C19.7763 20.8548 19.81 21.0257 19.7772 21.1904C19.7443 21.355 19.6476 21.5 19.5081 21.5934C18.4678 22.2823 17.2478 22.6496 16.0001 22.6496C14.7524 22.6496 13.5323 22.2823 12.4921 21.5934C12.3525 21.5001 12.2555 21.3552 12.2225 21.1906C12.1895 21.0259 12.224 20.8549 12.3169 20.715Z" fill="black"/>
<path d="M21.6836 0.701172C22.4366 0.701172 23.0479 1.31312 23.0479 2.06738V2.30859L23.0469 2.30762V5.76855C25.8468 5.82184 28.0996 8.11363 28.0996 10.9336V22.334C28.1003 23.4779 27.7217 24.5898 27.0225 25.4951C26.339 26.38 25.3869 27.0177 24.3105 27.3154V31.2998H7.68945V27.3154C6.61324 27.0178 5.66102 26.3799 4.97754 25.4951C4.27837 24.5899 3.89978 23.4778 3.90039 22.334V10.9346C3.90039 8.11461 6.15325 5.82282 8.95312 5.76953V2.06738C8.95312 1.3132 9.56333 0.701172 10.3164 0.701172H21.6836ZM9.78418 29.2002H22.2158V27.5H9.78418V29.2002ZM9.05273 7.86621C8.65057 7.86674 8.2522 7.94619 7.88086 8.10059C7.50949 8.255 7.17267 8.48182 6.88867 8.7666C6.60468 9.05138 6.37897 9.38896 6.22559 9.76074C6.0722 10.1326 5.99353 10.5314 5.99414 10.9336V22.334C5.99367 22.736 6.07225 23.1343 6.22559 23.5059C6.37899 23.8776 6.60472 24.2153 6.88867 24.5C7.17256 24.7846 7.5097 25.0107 7.88086 25.165C8.25215 25.3194 8.65064 25.3999 9.05273 25.4004H22.9473C23.3494 25.3999 23.7478 25.3194 24.1191 25.165C24.4903 25.0107 24.8274 24.7846 25.1113 24.5C25.3953 24.2153 25.621 23.8776 25.7744 23.5059C25.9277 23.1343 26.0063 22.736 26.0059 22.334V10.9336C26.0065 10.5314 25.9278 10.1326 25.7744 9.76074C25.621 9.38896 25.3953 9.05138 25.1113 8.7666C24.8273 8.48182 24.4905 8.255 24.1191 8.10059C23.7478 7.94619 23.3494 7.86674 22.9473 7.86621H9.05273ZM11.0469 5.7666H20.9531V2.7998H11.0469V5.7666Z" fill="black" stroke="black" stroke-width="0.2"/>
</svg>
