<svg width="40" height="40" viewBox="0 0 40 40" fill="none" xmlns="http://www.w3.org/2000/svg">
<g clip-path="url(#clip0_481_565)">
<path d="M20.0003 39.5597C30.803 39.5597 39.5602 30.8025 39.5602 19.9998C39.5602 9.19721 30.803 0.439941 20.0003 0.439941C9.1977 0.439941 0.44043 9.19721 0.44043 19.9998C0.44043 30.8025 9.1977 39.5597 20.0003 39.5597Z" fill="#121029"/>
<path d="M21.8605 18.2441L29.1421 9.77979H27.4166L21.094 17.1292L16.0441 9.77979H10.2197L17.8561 20.8934L10.2197 29.7695H11.9453L18.6222 22.0083L23.9552 29.7695H29.7796L21.8601 18.2441H21.8605ZM19.4971 20.9913L18.7233 19.8847L12.5671 11.0788H15.2175L20.1857 18.1854L20.9594 19.2921L27.4174 28.5296H24.767L19.4971 20.9917V20.9913Z" fill="white"/>
</g>
<defs>
<clipPath id="clip0_481_565">
<rect width="40" height="40" fill="white"/>
</clipPath>
</defs>
</svg>
