<svg width="40" height="40" viewBox="0 0 40 40" fill="none" xmlns="http://www.w3.org/2000/svg">
<g clip-path="url(#clip0_481_578)">
<path d="M20 40C31.0457 40 40 31.0457 40 20C40 8.9543 31.0457 0 20 0C8.9543 0 0 8.9543 0 20C0 31.0457 8.9543 40 20 40Z" fill="#121029"/>
<path fill-rule="evenodd" clip-rule="evenodd" d="M28 12.4C27.4 12.2 23.7 12 20 12C16.3 12 12.6 12.2 12 12.4C10.4 12.9 10 16.4 10 20C10 23.6 10.4 27.1 12 27.6C12.6 27.8 16.3 28 20 28C23.7 28 27.4 27.8 28 27.6C29.6 27.1 30 23.6 30 20C30 16.4 29.6 12.9 28 12.4ZM18 24.5V15.5L24 20L18 24.5Z" fill="white"/>
</g>
<defs>
<clipPath id="clip0_481_578">
<rect width="40" height="40" fill="white"/>
</clipPath>
</defs>
</svg>
